<svg width="25" height="25" viewBox="0 0 25 25" fill="none" xmlns="http://www.w3.org/2000/svg">
<g clip-path="url(#clip0_2920_2442)">
<path d="M18.1614 10.8223V6.09111C18.1614 5.95569 18.0988 5.83057 18.0103 5.73157L12.706 0.161552C12.607 0.0574111 12.4662 0 12.3257 0H3.91578C2.3632 0 1.12305 1.2661 1.12305 2.81887V18.7214C1.12305 20.2741 2.3632 21.5194 3.91578 21.5194H10.5541C11.8097 23.6036 14.092 25 16.6919 25C20.6415 25 23.8668 21.7903 23.8668 17.8356C23.8722 14.381 21.3918 11.4944 18.1614 10.8223ZM12.8467 1.82895L16.4055 5.57517H14.0972C13.4094 5.57517 12.8467 5.00736 12.8467 4.31957V1.82895ZM3.91578 20.4773C2.94151 20.4773 2.16522 19.6956 2.16522 18.7214V2.81887C2.16522 1.83925 2.94151 1.04217 3.91578 1.04217H11.8046V4.31957C11.8046 5.58566 12.8311 6.61735 14.0972 6.61735H17.1192V10.6867C16.963 10.6815 16.8379 10.6659 16.7024 10.6659C14.884 10.6659 13.2114 11.3642 11.9505 12.4584H5.33313C5.04646 12.4584 4.81204 12.6928 4.81204 12.9793C4.81204 13.266 5.04646 13.5004 5.33313 13.5004H10.9814C10.6113 14.0215 10.3039 14.5426 10.0643 15.1157H5.33313C5.04646 15.1157 4.81204 15.3501 4.81204 15.6368C4.81204 15.9233 5.04646 16.1579 5.33313 16.1579H9.72556C9.59529 16.679 9.52758 17.2573 9.52758 17.8356C9.52758 18.7734 9.70992 19.701 10.0382 20.4826H3.91578V20.4773ZM16.6973 23.9631C13.3209 23.9631 10.5749 21.2171 10.5749 17.8407C10.5749 14.4644 13.3156 11.7184 16.6973 11.7184C20.0788 11.7184 22.8195 14.4644 22.8195 17.8407C22.8195 21.2171 20.0737 23.9631 16.6973 23.9631Z" fill="white"/>
<path d="M5.33359 10.8898H10.6118C10.8985 10.8898 11.1329 10.6552 11.1329 10.3687C11.1329 10.0821 10.8985 9.84766 10.6118 9.84766H5.33359C5.04691 9.84766 4.8125 10.0821 4.8125 10.3687C4.8125 10.6552 5.04691 10.8898 5.33359 10.8898Z" fill="white"/>
<path d="M19.3646 17.7312L17.2233 20.0395V14.3497C17.2233 14.063 16.9887 13.8286 16.7022 13.8286C16.4155 13.8286 16.1811 14.063 16.1811 14.3497V20.0395L14.0239 17.7312C13.8259 17.523 13.4925 17.5073 13.284 17.7053C13.0756 17.9033 13.0599 18.2315 13.2581 18.44L16.3062 21.7174C16.4052 21.8215 16.5406 21.8841 16.6865 21.8841C16.8325 21.8841 16.9679 21.8215 17.0669 21.7174L20.1203 18.44C20.3183 18.2315 20.3078 17.8981 20.0994 17.7053C19.8857 17.5073 19.5628 17.523 19.3646 17.7312Z" fill="white"/>
</g>
<defs>
<clipPath id="clip0_2920_2442">
<rect width="25" height="25" fill="white"/>
</clipPath>
</defs>
</svg>
