<svg width="124" height="84" viewBox="0 0 124 84" fill="none" xmlns="http://www.w3.org/2000/svg">
<path d="M2.13 83.3878C1.32 83.3878 0.89 82.9478 0.89 82.1478V79.3578H0.09V78.4378H0.89V77.1178H1.94V78.4378H2.92V79.3578H1.94V81.8878C1.94 82.2178 2.1 82.4578 2.4 82.4578C2.6 82.4578 2.79 82.3778 2.87 82.2878L3.12 83.0778C2.93 83.2578 2.62 83.3878 2.13 83.3878ZM8.19336 83.2678H7.14336V80.2278C7.14336 79.4778 6.75336 79.2478 6.16336 79.2478C5.63336 79.2478 5.17336 79.5678 4.92336 79.8978V83.2678H3.87336V76.5978H4.92336V79.0978C5.24336 78.7178 5.87336 78.3178 6.63336 78.3178C7.67336 78.3178 8.19336 78.8578 8.19336 79.8478V83.2678ZM11.787 83.3878C10.337 83.3878 9.25695 82.3778 9.25695 80.8478C9.25695 79.4478 10.277 78.3178 11.707 78.3178C13.157 78.3178 14.087 79.4278 14.087 80.9478V81.1978H10.357C10.437 81.9278 10.987 82.5278 11.897 82.5278C12.367 82.5278 12.927 82.3378 13.267 81.9978L13.747 82.6878C13.267 83.1478 12.557 83.3878 11.787 83.3878ZM13.067 80.4578C13.047 79.8878 12.657 79.1778 11.707 79.1778C10.807 79.1778 10.397 79.8678 10.347 80.4578H13.067ZM19.8917 83.3878C18.4217 83.3878 17.3917 82.3178 17.3917 80.8478C17.3917 79.3878 18.4217 78.3178 19.8917 78.3178C20.8317 78.3178 21.4017 78.7178 21.7417 79.1778L21.0517 79.8178C20.7817 79.4378 20.4117 79.2478 19.9417 79.2478C19.0617 79.2478 18.4817 79.9078 18.4817 80.8478C18.4817 81.7878 19.0617 82.4578 19.9417 82.4578C20.4117 82.4578 20.7817 82.2578 21.0517 81.8878L21.7417 82.5278C21.4017 82.9878 20.8317 83.3878 19.8917 83.3878ZM23.7124 83.2678H22.6624V76.5978H23.7124V83.2678ZM25.5945 77.8478C25.2445 77.8478 24.9445 77.5578 24.9445 77.1978C24.9445 76.8378 25.2445 76.5478 25.5945 76.5478C25.9545 76.5478 26.2445 76.8378 26.2445 77.1978C26.2445 77.5578 25.9545 77.8478 25.5945 77.8478ZM26.1245 83.2678H25.0745V78.4378H26.1245V83.2678ZM34.4566 83.2678H33.4066V80.1178C33.4066 79.5978 33.1766 79.2478 32.6166 79.2478C32.1466 79.2478 31.7066 79.5778 31.4966 79.8878V83.2678H30.4466V80.1178C30.4466 79.5978 30.2166 79.2478 29.6466 79.2478C29.1866 79.2478 28.7566 79.5778 28.5366 79.8978V83.2678H27.4866V78.4378H28.5366V79.0978C28.7366 78.7978 29.3766 78.3178 30.1066 78.3178C30.8266 78.3178 31.2666 78.6778 31.4266 79.2078C31.7066 78.7678 32.3466 78.3178 33.0666 78.3178C33.9566 78.3178 34.4566 78.7978 34.4566 79.7778V83.2678ZM39.8167 83.2678H38.7667V82.7478C38.4067 83.1578 37.8467 83.3878 37.2067 83.3878C36.4167 83.3878 35.5267 82.8578 35.5267 81.7878C35.5267 80.6778 36.4167 80.2178 37.2067 80.2178C37.8567 80.2178 38.4167 80.4278 38.7667 80.8378V80.1178C38.7667 79.5578 38.3067 79.2178 37.6367 79.2178C37.0967 79.2178 36.6267 79.4178 36.2067 79.8278L35.7767 79.0978C36.3367 78.5678 37.0367 78.3178 37.8067 78.3178C38.8767 78.3178 39.8167 78.7678 39.8167 80.0678V83.2678ZM37.6167 82.6678C38.0767 82.6678 38.5267 82.4978 38.7667 82.1678V81.4378C38.5267 81.1078 38.0767 80.9378 37.6167 80.9378C37.0267 80.9378 36.5867 81.2778 36.5867 81.8078C36.5867 82.3278 37.0267 82.6678 37.6167 82.6678ZM42.628 83.3878C41.818 83.3878 41.388 82.9478 41.388 82.1478V79.3578H40.588V78.4378H41.388V77.1178H42.438V78.4378H43.418V79.3578H42.438V81.8878C42.438 82.2178 42.598 82.4578 42.898 82.4578C43.098 82.4578 43.288 82.3778 43.368 82.2878L43.618 83.0778C43.428 83.2578 43.118 83.3878 42.628 83.3878ZM46.6014 83.3878C45.1514 83.3878 44.0714 82.3778 44.0714 80.8478C44.0714 79.4478 45.0914 78.3178 46.5214 78.3178C47.9714 78.3178 48.9014 79.4278 48.9014 80.9478V81.1978H45.1714C45.2514 81.9278 45.8014 82.5278 46.7114 82.5278C47.1814 82.5278 47.7414 82.3378 48.0814 81.9978L48.5614 82.6878C48.0814 83.1478 47.3714 83.3878 46.6014 83.3878ZM47.8814 80.4578C47.8614 79.8878 47.4714 79.1778 46.5214 79.1778C45.6214 79.1778 45.2114 79.8678 45.1614 80.4578H47.8814ZM53.8062 83.2678H52.7562V79.3578H51.9562V78.4378H52.7562V78.1678C52.7562 77.0878 53.3962 76.4978 54.2862 76.4978C54.6162 76.4978 54.9162 76.5678 55.1262 76.6878L54.8962 77.4678C54.7962 77.3978 54.6562 77.3578 54.4762 77.3578C54.0662 77.3578 53.8062 77.6278 53.8062 78.1678V78.4378H54.7862V79.3578H53.8062V83.2678ZM56.1062 77.8478C55.7562 77.8478 55.4562 77.5578 55.4562 77.1978C55.4562 76.8378 55.7562 76.5478 56.1062 76.5478C56.4662 76.5478 56.7562 76.8378 56.7562 77.1978C56.7562 77.5578 56.4662 77.8478 56.1062 77.8478ZM56.6362 83.2678H55.5862V78.4378H56.6362V83.2678ZM62.3045 83.2678H61.2545V80.2478C61.2545 79.4978 60.8745 79.2478 60.2845 79.2478C59.7445 79.2478 59.2845 79.5678 59.0445 79.8978V83.2678H57.9945V78.4378H59.0445V79.0978C59.3645 78.7178 59.9845 78.3178 60.7445 78.3178C61.7845 78.3178 62.3045 78.8778 62.3045 79.8678V83.2678ZM67.6683 83.2678H66.6183V82.7478C66.2583 83.1578 65.6983 83.3878 65.0583 83.3878C64.2683 83.3878 63.3783 82.8578 63.3783 81.7878C63.3783 80.6778 64.2683 80.2178 65.0583 80.2178C65.7083 80.2178 66.2683 80.4278 66.6183 80.8378V80.1178C66.6183 79.5578 66.1583 79.2178 65.4883 79.2178C64.9483 79.2178 64.4783 79.4178 64.0583 79.8278L63.6283 79.0978C64.1883 78.5678 64.8883 78.3178 65.6583 78.3178C66.7283 78.3178 67.6683 78.7678 67.6683 80.0678V83.2678ZM65.4683 82.6678C65.9283 82.6678 66.3783 82.4978 66.6183 82.1678V81.4378C66.3783 81.1078 65.9283 80.9378 65.4683 80.9378C64.8783 80.9378 64.4383 81.2778 64.4383 81.8078C64.4383 82.3278 64.8783 82.6678 65.4683 82.6678ZM73.3396 83.2678H72.2896V80.2478C72.2896 79.4978 71.9096 79.2478 71.3196 79.2478C70.7796 79.2478 70.3196 79.5678 70.0796 79.8978V83.2678H69.0296V78.4378H70.0796V79.0978C70.3996 78.7178 71.0196 78.3178 71.7796 78.3178C72.8196 78.3178 73.3396 78.8778 73.3396 79.8678V83.2678ZM76.9034 83.3878C75.4334 83.3878 74.4034 82.3178 74.4034 80.8478C74.4034 79.3878 75.4334 78.3178 76.9034 78.3178C77.8434 78.3178 78.4134 78.7178 78.7534 79.1778L78.0634 79.8178C77.7934 79.4378 77.4234 79.2478 76.9534 79.2478C76.0734 79.2478 75.4934 79.9078 75.4934 80.8478C75.4934 81.7878 76.0734 82.4578 76.9534 82.4578C77.4234 82.4578 77.7934 82.2578 78.0634 81.8878L78.7534 82.5278C78.4134 82.9878 77.8434 83.3878 76.9034 83.3878ZM81.9041 83.3878C80.4541 83.3878 79.3741 82.3778 79.3741 80.8478C79.3741 79.4478 80.3941 78.3178 81.8241 78.3178C83.2741 78.3178 84.2041 79.4278 84.2041 80.9478V81.1978H80.4741C80.5541 81.9278 81.1041 82.5278 82.0141 82.5278C82.4841 82.5278 83.0441 82.3378 83.3841 81.9978L83.8641 82.6878C83.3841 83.1478 82.6741 83.3878 81.9041 83.3878ZM83.1841 80.4578C83.1641 79.8878 82.7741 79.1778 81.8241 79.1778C80.9241 79.1778 80.5141 79.8678 80.4641 80.4578H83.1841ZM92.1189 83.2678H91.0689V80.2478C91.0689 79.4978 90.6889 79.2478 90.0989 79.2478C89.5589 79.2478 89.0989 79.5678 88.8589 79.8978V83.2678H87.8089V78.4378H88.8589V79.0978C89.1789 78.7178 89.7989 78.3178 90.5589 78.3178C91.5989 78.3178 92.1189 78.8778 92.1189 79.8678V83.2678ZM95.7127 83.3878C94.2627 83.3878 93.1827 82.3778 93.1827 80.8478C93.1827 79.4478 94.2027 78.3178 95.6327 78.3178C97.0827 78.3178 98.0127 79.4278 98.0127 80.9478V81.1978H94.2827C94.3627 81.9278 94.9127 82.5278 95.8227 82.5278C96.2927 82.5278 96.8527 82.3378 97.1927 81.9978L97.6727 82.6878C97.1927 83.1478 96.4827 83.3878 95.7127 83.3878ZM96.9927 80.4578C96.9727 79.8878 96.5827 79.1778 95.6327 79.1778C94.7327 79.1778 94.3227 79.8678 94.2727 80.4578H96.9927ZM100.499 83.3878C99.6891 83.3878 99.2591 82.9478 99.2591 82.1478V79.3578H98.4591V78.4378H99.2591V77.1178H100.309V78.4378H101.289V79.3578H100.309V81.8878C100.309 82.2178 100.469 82.4578 100.769 82.4578C100.969 82.4578 101.159 82.3778 101.239 82.2878L101.489 83.0778C101.299 83.2578 100.989 83.3878 100.499 83.3878ZM107.553 83.2678H106.453L105.333 79.7278L104.213 83.2678H103.113L101.613 78.4378H102.703L103.723 81.9478L104.873 78.4378H105.793L106.943 81.9478L107.963 78.4378H109.053L107.553 83.2678ZM111.962 83.3878C110.432 83.3878 109.482 82.2378 109.482 80.8478C109.482 79.4678 110.432 78.3178 111.962 78.3178C113.512 78.3178 114.452 79.4678 114.452 80.8478C114.452 82.2378 113.512 83.3878 111.962 83.3878ZM111.962 82.4578C112.862 82.4578 113.362 81.7078 113.362 80.8478C113.362 79.9978 112.862 79.2478 111.962 79.2478C111.072 79.2478 110.572 79.9978 110.572 80.8478C110.572 81.7078 111.072 82.4578 111.962 82.4578ZM116.564 83.2678H115.514V78.4378H116.564V79.1478C116.924 78.6878 117.504 78.3278 118.134 78.3278V79.3678C118.044 79.3478 117.934 79.3378 117.804 79.3378C117.364 79.3378 116.774 79.6378 116.564 79.9778V83.2678ZM123.501 83.2678H122.181L120.701 81.2778L120.031 81.9678V83.2678H118.981V76.5978H120.031V80.7678L122.161 78.4378H123.461L121.451 80.6278L123.501 83.2678Z" fill="white"/>
<path d="M61.5028 43.3042C51.6091 43.3042 45.2997 35.6084 45.2997 25.4876C45.2997 15.3668 51.6091 7.69578 61.5028 7.69578C71.3966 7.69578 77.706 15.3173 77.706 25.5124C77.706 35.7074 71.323 43.329 61.5028 43.329M61.5028 51.0247C76.1594 51.0247 86.495 40.2358 86.495 25.5371C86.495 10.8384 76.1839 0 61.5028 0C46.8218 0 36.5107 10.7889 36.5107 25.4876C36.5107 40.1863 46.8463 50.9753 61.5028 50.9753" fill="white"/>
<path d="M49.7433 27.2693H33V30.7336H49.7433V27.2693ZM49.7433 20.2664H33V23.7307H49.7433V20.2664Z" fill="white"/>
<path d="M90.1285 27.2693H73.3852V30.7336H90.1285V27.2693ZM90.1285 20.2664H73.3852V23.7307H90.1285V20.2664Z" fill="white"/>
<path d="M44.8758 64.9039H44.0656V65.77H44.7285C44.262 67.3785 42.9854 68.492 41.1687 68.492C39.352 68.492 38.0999 67.3785 37.6334 65.77H38.1981V64.9039H37.4616C37.4616 64.7307 37.437 64.5822 37.437 64.409C37.437 64.2358 37.437 64.1616 37.437 64.0378H38.1735V63.1718H37.5598C37.9771 61.4891 39.2783 60.3508 41.1196 60.3508C42.9608 60.3508 44.2866 61.5138 44.7039 63.1718H44.0165V64.0378H44.8512C44.8512 64.1616 44.8512 64.2853 44.8512 64.409C44.8512 64.5328 44.8512 64.7307 44.8267 64.9039M41.1196 58C37.8544 58 35.3503 60.1033 34.8102 63.1718H34V64.0378H34.712C34.712 64.1616 34.712 64.2853 34.712 64.409C34.712 64.5328 34.712 64.7307 34.712 64.9039H34V65.77H34.8102C35.3748 68.7889 37.8544 70.818 41.095 70.818C44.3357 70.818 46.8152 68.7642 47.4044 65.77H48.141V64.9039H47.5026C47.5026 64.7307 47.5026 64.5822 47.5026 64.409C47.5026 64.2358 47.5026 64.1616 47.5026 64.0378H48.1164V63.1718H47.4044C46.8889 60.1033 44.3848 58 41.095 58" fill="white"/>
<path d="M51.7253 61.5881C51.7253 60.8457 52.339 60.3508 53.4684 60.3508C54.5977 60.3508 56.0216 60.7715 57.0036 61.6871L58.4521 59.7817C57.2491 58.6681 55.6533 58.0742 53.7139 58.0742C50.8415 58.0742 49.0984 59.7569 49.0984 61.8108C49.0984 66.4134 56.0952 64.9287 56.0952 67.1063C56.0952 69.2839 55.4078 68.4673 53.9839 68.4673C52.56 68.4673 50.9642 67.7249 50.1295 66.8093L48.7302 68.789C49.8595 69.952 51.5289 70.7438 53.8612 70.7438C56.1934 70.7438 58.7221 69.0611 58.7221 66.8093C58.7221 62.2315 51.7498 63.543 51.7498 61.5881" fill="white"/>
<path d="M63.043 58.2475H60.4652V70.4964H63.043V58.2475Z" fill="white"/>
<path d="M70.7517 63.8646H68.0267V60.5488H70.7517C71.7829 60.5488 72.5685 61.1674 72.5685 62.2067C72.5685 63.246 71.7829 63.8646 70.7517 63.8646ZM75.2199 62.2067C75.2199 59.9301 73.6732 58.2475 71.1445 58.2475H65.4489V70.4964H68.0267V66.1412H69.917L72.2984 70.4964H75.269L72.5439 65.8195C73.8451 65.4978 75.1953 64.3595 75.1953 62.182" fill="white"/>
<path d="M81.0383 66.1412L82.9287 60.8705L84.819 66.1412H81.0383ZM84.549 58.2475H81.3084L76.5947 70.4964H79.5407L80.3018 68.4178H85.5064L86.2429 70.4964H89.189L84.4999 58.2475H84.549Z" fill="white"/>
</svg>
