<svg width="47" height="49" viewBox="0 0 47 49" fill="none" xmlns="http://www.w3.org/2000/svg">
<path fill-rule="evenodd" clip-rule="evenodd" d="M23.7084 0.0809875C25.7502 1.93346 27.9795 3.47054 27.9795 6.88885V18.1367H19.0204V6.88885C19.0204 3.47043 21.2497 1.93335 23.2915 0.0809875C23.3486 0.0288586 23.4229 0 23.4999 0C23.577 0 23.6513 0.0288586 23.7084 0.0809875ZM8.31685 21.1834L23.5 30.0333L38.6845 21.1826L32.629 17.653V19.4531C32.629 20.8248 31.1547 21.6842 29.9781 20.9983L28.169 19.9438V20.1223C28.169 21.1067 27.3768 21.9066 26.4016 21.9066H20.5984C19.6233 21.9066 18.831 21.1068 18.831 20.1223V19.9438L17.0219 20.9983C15.8453 21.6842 14.3709 20.8248 14.3709 19.4531V17.6547L8.31685 21.1834ZM25.9857 23.0598C25.9857 22.865 26.0624 22.6781 26.1988 22.5403C26.3353 22.4025 26.5204 22.3251 26.7134 22.3251C26.9064 22.3251 27.0915 22.4025 27.228 22.5403C27.3645 22.6781 27.4412 22.865 27.4412 23.0598V24.9595C27.4412 25.1544 27.3645 25.3413 27.228 25.479C27.0915 25.6168 26.9064 25.6942 26.7134 25.6942C26.5204 25.6942 26.3353 25.6168 26.1988 25.479C26.0624 25.3413 25.9857 25.1544 25.9857 24.9595V23.0598ZM19.5587 23.0598C19.5587 22.9633 19.5776 22.8678 19.6141 22.7787C19.6507 22.6895 19.7043 22.6085 19.7719 22.5403C19.8395 22.4721 19.9197 22.418 20.008 22.3811C20.0963 22.3441 20.1909 22.3251 20.2865 22.3251C20.382 22.3251 20.4767 22.3441 20.565 22.3811C20.6533 22.418 20.7335 22.4721 20.8011 22.5403C20.8686 22.6085 20.9222 22.6895 20.9588 22.7787C20.9954 22.8678 21.0142 22.9633 21.0142 23.0598V24.9595C21.0142 25.056 20.9954 25.1516 20.9588 25.2407C20.9222 25.3298 20.8686 25.4108 20.8011 25.479C20.7335 25.5473 20.6533 25.6014 20.565 25.6383C20.4767 25.6752 20.382 25.6942 20.2865 25.6942C20.1909 25.6942 20.0963 25.6752 20.008 25.6383C19.9197 25.6014 19.8395 25.5473 19.7719 25.479C19.7043 25.4108 19.6507 25.3298 19.6141 25.2407C19.5776 25.1516 19.5587 25.056 19.5587 24.9595V23.0598ZM22.7723 23.0598C22.7723 22.865 22.8489 22.6781 22.9854 22.5403C23.1219 22.4025 23.307 22.3251 23.5 22.3251C23.693 22.3251 23.8781 22.4025 24.0146 22.5403C24.1511 22.6781 24.2277 22.865 24.2277 23.0598V27.9089C24.2277 28.1038 24.1511 28.2906 24.0146 28.4284C23.8781 28.5662 23.693 28.6436 23.5 28.6436C23.307 28.6436 23.1219 28.5662 22.9854 28.4284C22.8489 28.2906 22.7723 28.1038 22.7723 27.9089V23.0598ZM47 26.0295L31.8169 34.8793L24.9506 30.8772L40.1337 22.0273L47 26.0295ZM6.86629 22.0273L22.0494 30.8772L15.1831 34.8793L0 26.0295L6.86629 22.0273ZM22.7723 32.1485L15.5549 36.3553C15.4438 36.4222 15.3171 36.4579 15.1877 36.4587C15.0584 36.4595 14.9312 36.4254 14.8193 36.3599L7.59402 32.1485V40.153L22.7723 49V32.1485ZM24.2277 32.1485V49L39.406 40.153V32.1485L32.1807 36.3599C32.0689 36.4254 31.9417 36.4595 31.8124 36.4587C31.6831 36.4579 31.5564 36.4223 31.4453 36.3554L24.2277 32.1485ZM30.5893 12.6188C30.9608 12.8354 31.1735 13.2073 31.1735 13.6405V19.4531C31.1735 19.6963 30.9144 19.8474 30.7057 19.7258L29.4349 18.985V11.9459L30.5893 12.6188ZM16.4107 12.6188L17.5651 11.9459V18.985L16.2943 19.7258C16.0857 19.8474 15.8265 19.6963 15.8265 19.4531V13.6405C15.8265 13.2073 16.0391 12.8353 16.4107 12.6188ZM26.7135 19.606V20.1223C26.7135 20.2957 26.5734 20.4372 26.4016 20.4372H20.5984C20.4266 20.4372 20.2865 20.2957 20.2865 20.1223V19.606H26.7135ZM23.5 5.1005C22.5319 5.1005 21.7471 5.89282 21.7471 6.87006C21.7471 7.84731 22.5319 8.63962 23.5 8.63962C24.4681 8.63962 25.2528 7.84731 25.2528 6.87006C25.2528 5.89282 24.4681 5.1005 23.5 5.1005Z" fill="white"/>
</svg>
