<svg width="24" height="19" viewBox="0 0 24 19" fill="none" xmlns="http://www.w3.org/2000/svg">
<g id="Group">
<path id="Vector" d="M17.1863 12.9867C17.0076 11.7722 16.3995 10.662 15.4723 9.85753C14.5451 9.05305 13.3603 8.60755 12.1328 8.60185H10.9887C9.76117 8.60755 8.57633 9.05305 7.64915 9.85753C6.72196 10.662 6.11384 11.7722 5.93511 12.9867L5.38674 16.8209C5.36922 16.9449 5.38079 17.0712 5.42054 17.1899C5.4603 17.3086 5.52713 17.4164 5.61576 17.5048C5.83081 17.7198 7.15012 18.8166 11.5618 18.8166C15.9735 18.8166 17.2896 17.7241 17.5078 17.5048C17.5965 17.4164 17.6633 17.3086 17.7031 17.1899C17.7428 17.0712 17.7544 16.9449 17.7369 16.8209L17.1863 12.9867ZM6.78561 9.19323C5.74643 10.1512 5.07029 11.4389 4.8717 12.8383L4.47386 15.5909C1.28042 15.5694 0.312709 14.4081 0.151424 14.1716C0.0890804 14.0856 0.0445904 13.9881 0.0205823 13.8846C-0.00342575 13.7812 -0.00646501 13.674 0.0116441 13.5694L0.248195 12.2361C0.371441 11.5393 0.660893 10.8825 1.09201 10.3214C1.52313 9.76026 2.08319 9.31137 2.72472 9.01276C3.36626 8.71415 4.07033 8.57464 4.77725 8.60606C5.48418 8.63748 6.1731 8.83889 6.78561 9.19323ZM23.1077 13.5694C23.1258 13.674 23.1227 13.7812 23.0987 13.8846C23.0747 13.9881 23.0302 14.0856 22.9679 14.1716C22.8066 14.4081 21.8389 15.5694 18.6454 15.5909L18.2476 12.8383C18.049 11.4389 17.3729 10.1512 16.3337 9.19323C16.9462 8.83889 17.6351 8.63748 18.342 8.60606C19.049 8.57464 19.753 8.71415 20.3946 9.01276C21.0361 9.31137 21.5962 9.76026 22.0273 10.3214C22.4584 10.8825 22.7479 11.5393 22.8711 12.2361L23.1077 13.5694ZM6.9684 6.82772C6.69775 7.21157 6.33843 7.52443 5.92099 7.7397C5.50355 7.95497 5.04031 8.0663 4.57063 8.06424C4.10211 8.06424 3.64029 7.9529 3.22324 7.7394C2.80618 7.52591 2.44583 7.21636 2.17188 6.83627C1.89793 6.45618 1.71822 6.01644 1.64756 5.55327C1.5769 5.0901 1.61732 4.61678 1.76548 4.17229C1.91364 3.72781 2.1653 3.3249 2.49973 2.99676C2.83416 2.66862 3.24177 2.42465 3.68898 2.28495C4.1362 2.14525 4.61021 2.11383 5.07195 2.19326C5.53369 2.27269 5.96995 2.46072 6.34477 2.74183C6.23696 3.16343 6.18277 3.59695 6.18348 4.03211C6.18431 5.01826 6.45581 5.98526 6.9684 6.82772ZM21.5056 5.10735C21.5058 5.49573 21.4296 5.88036 21.2811 6.23923C21.1326 6.59811 20.9148 6.92419 20.6401 7.19881C20.3655 7.47344 20.0394 7.69124 19.6806 7.83973C19.3217 7.98823 18.9371 8.06452 18.5487 8.06424C18.079 8.0663 17.6158 7.95497 17.1983 7.7397C16.7809 7.52443 16.4216 7.21157 16.1509 6.82772C16.6635 5.98526 16.935 5.01826 16.9358 4.03211C16.9365 3.59695 16.8823 3.16343 16.7745 2.74183C17.2138 2.41235 17.7362 2.21172 18.2831 2.1624C18.83 2.11309 19.3799 2.21704 19.871 2.46262C20.3622 2.7082 20.7753 3.0857 21.064 3.55281C21.3526 4.01993 21.5056 4.55822 21.5056 5.10735Z" fill="white"/>
<path id="Vector_2" d="M11.5596 8.06425C13.7865 8.06425 15.5917 6.25901 15.5917 4.03213C15.5917 1.80524 13.7865 0 11.5596 0C9.33271 0 7.52747 1.80524 7.52747 4.03213C7.52747 6.25901 9.33271 8.06425 11.5596 8.06425Z" fill="white"/>
</g>
</svg>
