<svg width="44" height="44" viewBox="0 0 44 44" fill="none" xmlns="http://www.w3.org/2000/svg">
<path d="M42.8699 25.2523C42.8894 24.9137 42.6093 24.6379 42.2967 24.5585L35.1668 23.2077C35.2527 22.4648 35.2909 21.6895 35.2238 20.9357C35.2556 20.93 36.867 20.9552 36.8294 20.9105C37.6142 23.194 41.0145 22.6547 41.0362 20.2138C41.0145 17.7729 37.6134 17.2343 36.8294 19.5171C36.7875 19.5092 36.7486 19.4919 36.7045 19.4919H35.0722C34.9794 18.8878 34.8462 18.2906 34.6737 17.7043L39.4234 15.3291C39.4595 15.3111 39.484 15.28 39.5158 15.2569C40.8102 16.6012 43.2446 15.6071 43.2013 13.7156C43.088 10.6632 38.578 10.9714 38.8985 14.0043C38.8581 14.0159 38.8162 14.0173 38.7772 14.0368L34.1842 16.3333C33.718 15.2425 33.1123 14.2167 32.3822 13.2817L33.5178 12.146C33.5489 12.115 33.5633 12.076 33.5879 12.0406C35.7378 13.1134 37.7874 10.2921 36.0699 8.57312C34.351 6.85561 31.5296 8.90594 32.6024 11.0552C32.5678 11.0797 32.528 11.0942 32.497 11.1252L31.4394 12.1829C30.4491 11.1433 29.3023 10.2651 28.0404 9.58024V2.51382C29.0678 2.8553 30.0525 3.30002 31.0062 3.78445C30.329 6.94874 35.0953 7.56456 35.2599 4.33096C35.3169 2.58096 33.12 1.5132 31.7844 2.61634C30.4669 1.79837 28.9277 1.22948 27.4188 0.828073C27.0976 0.757323 26.7546 0.987624 26.6449 1.29229C26.6052 1.36376 26.6204 1.45111 26.5965 1.52981V8.91821C24.9894 8.27442 23.2742 7.9429 21.5429 7.94142V4.33168C21.5429 4.28764 21.5256 4.24866 21.5176 4.20679C23.8012 3.42203 23.2619 0.0216584 20.821 0C18.3801 0.0216584 17.8415 3.42275 20.1243 4.20679C20.1163 4.24866 20.099 4.28764 20.099 4.33168V8.01867C17.1556 8.33777 14.5126 9.54198 12.3828 11.4768L7.77032 6.865C8.69441 5.97628 9.73618 5.24495 10.7621 4.53166C12.0724 5.73731 14.3841 4.68905 14.3227 2.88779C14.1783 -0.27434 9.51887 0.21875 10.0394 3.33901C8.64315 4.11726 7.39418 5.20452 6.22463 6.34086C6.15753 6.40785 6.10429 6.48741 6.06797 6.57499C6.03165 6.66258 6.01295 6.75646 6.01295 6.85128C6.01295 6.94609 6.03165 7.03998 6.06797 7.12756C6.10429 7.21515 6.15753 7.29471 6.22463 7.36169L11.3613 12.4983C9.50349 14.5544 8.31525 17.127 7.95441 19.8745L1.85901 17.1044C2.05394 16.1738 2.3651 15.2916 2.64016 14.4259C5.58282 14.5371 5.71927 10.2004 2.77156 10.1073C0.804971 10.0639 -0.150165 12.6586 1.35004 13.8953C0.851176 14.966 0.576114 16.1702 0.309715 17.3722C0.273618 17.6718 0.394183 17.9873 0.669245 18.136C0.739996 18.214 7.76165 21.3545 7.83818 21.4072C7.79486 22.2215 7.89377 23.0395 8.01361 23.8243H4.33168C4.28764 23.8243 4.24866 23.8416 4.20679 23.8495C3.42203 21.566 0.0216584 22.1053 0 24.5462C0.0216584 26.9871 3.42275 27.5257 4.20679 25.2429C4.24866 25.2508 4.28764 25.2682 4.33168 25.2682H8.32405C8.56157 26.1352 8.87995 26.9669 9.27413 27.7567L4.83921 30.5788C4.78868 30.6113 4.75402 30.6575 4.71431 30.6986C3.35561 29.7103 1.27568 30.786 1.32838 32.4869C1.51898 35.8071 6.40295 35.0346 5.54672 31.827C5.5691 31.8162 5.59292 31.8104 5.61458 31.7967L9.98525 29.0151C10.7328 30.189 11.6536 31.2432 12.7164 32.1418L10.5931 38.4986C9.86035 38.2047 9.15646 37.8105 8.45039 37.4236C9.22576 34.2376 4.38799 33.5409 4.21545 36.8179C4.16058 38.544 6.30188 39.6176 7.64831 38.5671C8.59839 39.2682 9.72896 39.7381 10.7938 40.1475C11.0841 40.2601 11.4125 40.1388 11.6024 39.9056C11.6414 39.837 11.6854 39.7685 11.715 39.6955L13.9314 33.0601C15.3017 33.9719 16.8247 34.6302 18.4277 35.0036L17.6502 38.8848C17.6415 38.9281 17.6509 38.9693 17.6502 39.0119C15.0042 39.3988 15.2468 43.2656 17.9317 43.3154C20.1257 43.332 20.9054 40.3489 19.019 39.2869C19.0349 39.2472 19.0565 39.2118 19.0652 39.1685L19.8485 35.2585C21.5054 35.4895 23.2814 35.3588 24.8718 34.948L25.9915 38.5758C26.0038 38.6148 26.0269 38.6466 26.045 38.6827C24.3664 39.8616 25.2378 42.6165 27.317 42.5942C30.1319 42.527 30.1933 38.4184 27.3835 38.269C27.3784 38.2293 27.3835 38.1896 27.3719 38.1499L26.2529 34.5228C27.8664 33.9337 29.3399 33.0659 30.6084 31.9231L33.372 35.5378C33.3966 35.5696 33.4326 35.5841 33.4608 35.6108C32.4883 36.9724 33.5648 39.035 35.2592 38.9837C38.5982 38.7881 37.7903 33.8766 34.5733 34.7733C34.5538 34.7358 34.5452 34.6953 34.5185 34.6614L31.6451 30.9029C33.2697 29.1364 34.4008 26.9734 34.9249 24.6314L41.3156 25.8421C41.1214 26.8831 40.7698 27.8917 40.4435 28.8902C37.5015 28.779 37.3644 33.1157 40.3121 33.2088C42.2758 33.2522 43.2324 30.664 41.7387 29.4251C42.2946 28.1083 42.6967 26.668 42.8678 25.2515L42.8699 25.2523ZM32.1317 27.8354C30.5413 26.7394 28.7894 25.8985 26.9395 25.3432C26.7659 24.3642 26.6619 23.3741 26.6283 22.3804H33.7806C33.6704 24.3036 33.1053 26.1731 32.1317 27.8354ZM29.0057 31.3802C28.2679 29.9806 27.6924 28.5014 27.2903 26.9712C28.7223 27.4772 30.0806 28.1713 31.3296 29.0353C30.6632 29.9172 29.8816 30.7059 29.0057 31.3802ZM9.30734 22.3804H16.4597C16.4264 23.3741 16.3225 24.3643 16.1485 25.3432C14.2984 25.898 12.5464 26.7389 10.9563 27.8354C9.98271 26.1731 9.41758 24.3036 9.30734 22.3804ZM10.9563 15.4814C12.5467 16.5775 14.2985 17.4183 16.1485 17.9736C16.3221 18.9526 16.4261 19.9427 16.4597 20.9365H9.30734C9.41758 19.0133 9.98271 17.1437 10.9563 15.4814ZM14.0823 11.9367C14.82 13.3362 15.3955 14.8155 15.7976 16.3456C14.3657 15.8397 13.0074 15.1456 11.7584 14.2816C12.4247 13.3996 13.2063 12.6109 14.0823 11.9367ZM33.7806 20.9365H26.6283C26.6622 19.9395 26.7655 18.9497 26.9395 17.9736C28.7896 17.4188 30.5415 16.5779 32.1317 15.4814C33.1053 17.1437 33.6704 19.0133 33.7806 20.9365ZM25.1844 20.9365H17.9036C17.8767 20.0739 17.8002 19.2136 17.6747 18.3598C20.1835 18.9027 22.9045 18.9027 25.4133 18.3598C25.2874 19.2136 25.211 20.0739 25.1844 20.9365ZM17.9036 22.3804H25.1844C25.2126 23.2453 25.2869 24.1058 25.4133 24.957C22.8623 24.4141 20.2257 24.4141 17.6747 24.957C17.8011 24.1051 17.8761 23.2453 17.9036 22.3804ZM31.3296 14.2816C30.0805 15.1454 28.7222 15.8395 27.2903 16.3456C27.6922 14.8154 28.2677 13.3361 29.0057 11.9367C29.8816 12.6109 30.6632 13.3996 31.3296 14.2816ZM27.8051 11.1216C26.8439 12.9185 26.1345 14.839 25.697 16.8293C23.0236 17.4913 20.0658 17.4913 17.3924 16.8293C16.9543 14.8392 16.245 12.9187 15.2843 11.1216C18.8977 8.83375 24.1924 8.83375 27.8051 11.1216ZM11.7584 29.0353C13.0074 28.1714 14.3658 27.4773 15.7976 26.9712C15.3958 28.5014 14.8203 29.9807 14.0823 31.3802C13.2063 30.7059 12.4247 29.9172 11.7584 29.0353ZM15.2829 32.1952C16.2441 30.3984 16.9534 28.4778 17.391 26.4875C20.0644 25.8255 23.0222 25.8255 25.6955 26.4875C26.1336 28.4776 26.843 30.3981 27.8036 32.1952C24.1903 34.4831 18.8955 34.4831 15.2829 32.1952Z" fill="white"/>
</svg>
