<svg width="98" height="98" viewBox="0 0 98 98" fill="none" xmlns="http://www.w3.org/2000/svg">
<circle cx="49" cy="49" r="49" fill="url(#paint0_linear_25_6422)"/>
<path d="M39.1131 35.0582H48.5784C49.9339 32.0202 52.3175 29.5637 52.3374 29.5238C52.7177 29.1689 52.819 28.6366 52.6163 28.1549C52.4136 27.6733 51.9573 27.3691 51.4503 27.3691C49.169 27.3691 47.9269 28.1803 46.9383 28.8393C46.0511 29.4477 45.3667 29.904 43.8458 29.904C42.3249 29.904 41.6405 29.4477 40.7533 28.8393C39.7647 28.1803 38.5226 27.3691 36.2413 27.3691C35.7343 27.3691 35.278 27.6733 35.0753 28.1549C34.8725 28.6366 34.9739 29.1689 35.3541 29.5238C35.3741 29.5637 37.7576 32.0202 39.1131 35.0582ZM52.8022 66.8281V69.363C52.8022 70.0629 53.3697 70.6304 54.0697 70.6304H69.3632C70.0631 70.6304 70.6306 70.0629 70.6306 69.363V66.8281C70.6306 66.1282 70.0631 65.5607 69.3632 65.5607H54.0697C53.3697 65.5607 52.8022 66.1282 52.8022 66.8281ZM70.6306 61.7585V59.2236C70.6306 58.5237 70.0631 57.9562 69.3632 57.9562H54.0697C53.3697 57.9562 52.8022 58.5237 52.8022 59.2236V61.7585C52.8022 62.4584 53.3697 63.0259 54.0697 63.0259H69.3632C70.0631 63.0259 70.6306 62.4584 70.6306 61.7585Z" fill="white"/>
<path fill-rule="evenodd" clip-rule="evenodd" d="M47.7241 40.1276C48.1297 43.3722 50.1576 45.4339 52.6417 47.8673L52.6464 47.8719C54.7203 49.907 56.9927 52.1368 58.5251 55.4211H53.9852C51.8889 55.4211 50.1829 57.1271 50.1829 59.2234V69.3628C50.1829 69.8089 50.2742 70.2322 50.4161 70.6302H33.7065C30.2845 70.6302 27.4201 67.8926 27.3694 64.5466C27.3694 55.3958 31.4505 51.3908 35.0499 47.8673C37.5341 45.4339 39.562 43.3722 39.9675 40.1276H38.7762C38.0664 40.1276 37.5087 39.5699 37.5087 38.8602C37.5087 38.1504 38.0664 37.5928 38.7762 37.5928H48.9155C49.6253 37.5928 50.1829 38.1504 50.1829 38.8602C50.1829 39.5699 49.6253 40.1276 48.9155 40.1276H47.7241ZM37.8504 56.9066C37.8504 57.0464 37.8556 57.1841 37.8659 57.3196H38.8802V58.1225H37.9916C38.4094 59.8415 39.7294 61.0355 41.6055 61.0355V61.0413C43.4719 61.0413 44.8026 59.8532 45.2209 58.1225H44.3591V57.3196H45.3455C45.3554 57.1861 45.3605 57.0502 45.3605 56.9124C45.3605 56.7726 45.3553 56.6349 45.3452 56.4996H44.3591V55.6967H45.2209C44.8048 53.969 43.4839 52.7835 41.6055 52.7835C39.7274 52.7835 38.4066 53.9762 37.9902 55.6967H38.8802V56.4996H37.8654C37.8555 56.6331 37.8504 56.7689 37.8504 56.9066ZM47.2899 55.6967C46.7899 52.9281 44.5864 51 41.6055 51C38.6206 51 36.4152 52.9244 35.919 55.6967H35V56.4996H35.8252C35.8175 56.6337 35.8136 56.7694 35.8136 56.9066C35.8136 57.0458 35.8176 57.1835 35.8255 57.3196H35V58.1225H35.9203C36.4196 60.8916 38.6277 62.8133 41.6055 62.8133V62.8247C44.5873 62.8247 46.7974 60.8978 47.2927 58.1225H48.2393V57.3196H47.386C47.3935 57.1873 47.3973 57.0534 47.3973 56.9181C47.3973 56.777 47.3932 56.6375 47.3851 56.4996H48.2393V55.6967H47.2899Z" fill="white"/>
<defs>
<linearGradient id="paint0_linear_25_6422" x1="98" y1="119.5" x2="98" y2="-57.5" gradientUnits="userSpaceOnUse">
<stop stop-color="#1B3741"/>
<stop offset="1" stop-color="#6BC6AF"/>
</linearGradient>
</defs>
</svg>
