<svg width="98" height="98" viewBox="0 0 98 98" fill="none" xmlns="http://www.w3.org/2000/svg">
<circle cx="49" cy="49" r="49" fill="url(#paint0_linear_802_12)"/>
<path d="M56.4791 58.542H55.6132C55.6132 61.8842 52.894 64.6033 49.5518 64.6033C46.2096 64.6033 43.4905 61.8842 43.4905 58.542H42.6246C37.1338 58.542 32.6667 63.0091 32.6667 68.4999V70.4049C32.6667 71.1222 33.2482 71.7037 33.9655 71.7037H65.1381C65.8554 71.7037 66.437 71.1222 66.437 70.4049V68.4999C66.437 63.0091 61.9699 58.542 56.4791 58.542Z" fill="white"/>
<path d="M46.0882 57.2433V58.5422C46.0882 60.4551 47.639 62.0058 49.5518 62.0058C51.4647 62.0058 53.0154 60.4551 53.0154 58.5422V57.2433H46.0882ZM49.5518 32.5651C50.2691 32.5651 50.8507 31.9835 50.8507 31.2662V28.6685C50.8507 27.9512 50.2691 27.3696 49.5518 27.3696C48.8345 27.3696 48.253 27.9512 48.253 28.6685V31.2662C48.253 31.9835 48.8345 32.5651 49.5518 32.5651ZM39.768 31.6381L41.0668 33.8878C41.4255 34.509 42.2199 34.7219 42.8411 34.3632C43.4623 34.0045 43.6751 33.2102 43.3164 32.589L42.0176 30.3392C41.6589 29.718 40.8645 29.5052 40.2433 29.8639C39.6221 30.2225 39.4093 31.0169 39.768 31.6381ZM33.9045 38.4523L36.1542 39.7512C36.7754 40.1099 37.5698 39.897 37.9284 39.2758C38.2871 38.6546 38.0743 37.8602 37.4531 37.5016L35.2033 36.2027C34.5821 35.8441 33.7878 36.0569 33.4291 36.6781C33.0705 37.2993 33.2833 38.0937 33.9045 38.4523ZM63.9003 36.2027L61.6506 37.5016C61.0294 37.8602 60.8166 38.6546 61.1752 39.2758C61.5339 39.897 62.3282 40.1099 62.9494 39.7512L65.1992 38.4523C65.8204 38.0937 66.0332 37.2993 65.6745 36.6781C65.3159 36.0569 64.5215 35.8441 63.9003 36.2027ZM56.2626 34.3632C56.8838 34.7219 57.6782 34.509 58.0368 33.8878L59.3357 31.6381C59.6943 31.0169 59.4815 30.2225 58.8603 29.8639C58.2391 29.5052 57.4447 29.718 57.0861 30.3392L55.7872 32.589C55.4285 33.2102 55.6414 34.0045 56.2626 34.3632ZM49.5518 35.1628C44.2914 35.1628 40.0269 39.4273 40.0269 44.6877C40.0269 48.0728 41.7956 51.0396 44.4573 52.727C45.171 53.1794 45.6899 53.8622 45.9331 54.6456H48.253V47.8234L46.0356 45.6062C45.5284 45.0989 45.5284 44.2766 46.0356 43.7693C46.5429 43.2621 47.3652 43.2621 47.8725 43.7693L49.5518 45.4486L51.2311 43.7693C51.7383 43.2621 52.5607 43.2621 53.0679 43.7693C53.5752 44.2766 53.5752 45.0989 53.0679 45.6062L50.8507 47.8234V54.6456H53.1705C53.4138 53.8622 53.9328 53.1794 54.6464 52.727C57.3081 51.0396 59.0768 48.0728 59.0768 44.6877C59.0768 39.4273 54.8123 35.1628 49.5518 35.1628Z" fill="white"/>
<defs>
<linearGradient id="paint0_linear_802_12" x1="98" y1="119.5" x2="98" y2="-57.5" gradientUnits="userSpaceOnUse">
<stop stop-color="#1B3741"/>
<stop offset="1" stop-color="#6BC6AF"/>
</linearGradient>
</defs>
</svg>
