<svg width="98" height="98" viewBox="0 0 98 98" fill="none" xmlns="http://www.w3.org/2000/svg">
<circle cx="49" cy="49" r="49" fill="url(#paint0_linear_802_11)"/>
<path d="M43.8138 24.3423C41.3624 24.3423 38.5946 31.1431 38.2783 41.107C41.5996 38.8928 46.028 38.8928 49.3493 41.107C49.033 31.1431 46.3443 24.3423 43.8138 24.3423ZM47.1351 24.6586C49.5075 27.9008 50.9309 34.5435 51.0891 41.2652C54.4895 38.8928 58.997 38.8928 62.3974 41.107C61.5275 32.8037 55.2012 26.082 47.1351 24.6586ZM57.2572 35.4924C56.8619 35.7297 56.3874 35.6506 56.0711 35.2552C55.2012 33.9108 54.1732 32.7247 52.9079 31.6966C52.5125 31.3803 52.5125 30.9058 52.7497 30.5104C53.0661 30.1151 53.5405 30.1151 53.9359 30.4314C55.2803 31.5385 56.4665 32.8828 57.4154 34.3062C57.7317 34.7016 57.6526 35.2552 57.2572 35.4924ZM25.3093 41.107C28.7097 38.8928 33.2172 38.8137 36.6176 41.2652C36.8549 34.5435 38.1992 27.9008 40.5716 24.6586C32.4264 26.082 26.1001 32.8037 25.3093 41.107ZM34.1662 32.2502C32.8218 33.4364 31.7938 34.7807 31.003 36.3623C30.7658 36.7577 30.2913 36.9158 29.8959 36.6786C29.5005 36.4414 29.3424 35.9669 29.5796 35.5715C30.5285 33.9108 31.7147 32.3293 33.1381 31.064C33.3754 30.6686 33.9289 30.6686 34.2453 31.064C34.5616 31.3803 34.5616 31.9339 34.1662 32.2502Z" fill="white"/>
<path d="M44.6837 41.1865V43.8752C44.2092 43.7961 43.4975 43.7961 43.023 43.8752V41.1865C43.5766 41.1074 44.1301 41.1074 44.6837 41.1865ZM44.6837 68.0734V70.8411C44.6837 72.66 43.1812 74.1625 41.3624 74.1625C39.5435 74.1625 38.041 72.739 38.041 70.8411C38.041 70.3667 38.4364 69.9713 38.9109 69.9713C39.3854 69.9713 39.7808 70.2876 39.7808 70.7621C39.7808 71.711 40.5716 72.4227 41.3624 72.4227C42.2322 72.4227 43.023 71.711 43.023 70.7621V67.9943C43.4975 68.1524 44.2092 68.1524 44.6837 68.0734ZM55.5966 58.9793H68.4865V62.3006H54.2522C54.8058 61.2726 55.2803 60.1655 55.5966 58.9793ZM71.8078 53.9973V57.2395H55.9129C55.9129 56.8441 55.992 56.3697 55.992 55.9743C55.992 55.2626 55.9129 54.6299 55.8338 53.9973H71.8078ZM49.5075 72.1855H67.6957V68.9432H49.5075V72.1855ZM53.6196 67.2035H71.8078V63.9613H53.6196V67.2035Z" fill="white"/>
<path fill-rule="evenodd" clip-rule="evenodd" d="M33.3754 55.9743C33.3754 50.2016 38.041 45.5359 43.8138 45.5359C49.5866 45.5359 54.2522 50.2806 54.2522 55.9743C54.2522 61.7471 49.5866 66.4127 43.8138 66.4127C38.041 66.4127 33.3754 61.7471 33.3754 55.9743ZM40.3683 55.9076C40.3683 56.0237 40.3726 56.1381 40.3811 56.2507H41.2239V56.9177H40.4855C40.8327 58.346 41.9294 59.3382 43.4882 59.3382V59.3429C45.039 59.3429 46.1446 58.3558 46.4921 56.9177H45.7761V56.2507H46.5957C46.6039 56.1397 46.6081 56.0269 46.6081 55.9124C46.6081 55.7962 46.6038 55.6818 46.5954 55.5693H45.7761V54.9023H46.4921C46.1464 53.4668 45.0489 52.4818 43.4882 52.4818C41.9278 52.4818 40.8304 53.4728 40.4845 54.9023H41.2239V55.5693H40.3808C40.3725 55.6803 40.3683 55.7931 40.3683 55.9076ZM48.2112 54.9023C47.7957 52.602 45.9649 51 43.4882 51C41.0082 51 39.1759 52.5989 38.7635 54.9023H38V55.5693H38.6856C38.6792 55.6808 38.676 55.7936 38.676 55.9076C38.676 56.0232 38.6793 56.1376 38.6859 56.2507H38V56.9177H38.7646C39.1794 59.2185 41.0141 60.8152 43.4882 60.8152V60.8247C45.9657 60.8247 47.802 59.2236 48.2135 56.9177H49V56.2507H48.2911C48.2973 56.1407 48.3004 56.0295 48.3004 55.9171C48.3004 55.7999 48.297 55.6839 48.2903 55.5693H49V54.9023H48.2112Z" fill="white"/>
<defs>
<linearGradient id="paint0_linear_802_11" x1="98" y1="119.5" x2="98" y2="-57.5" gradientUnits="userSpaceOnUse">
<stop stop-color="#1B3741"/>
<stop offset="1" stop-color="#6BC6AF"/>
</linearGradient>
</defs>
</svg>
