<svg width="10" height="65" viewBox="0 0 10 65" fill="none" xmlns="http://www.w3.org/2000/svg">
<path d="M5 54.0015C2.23858 54.0015 -6.78525e-07 56.24 -4.37114e-07 59.0015C-1.95703e-07 61.7629 2.23858 64.0015 5 64.0015C7.76142 64.0015 10 61.7629 10 59.0015C10 56.24 7.76142 54.0015 5 54.0015Z" fill="#1B3741"/>
<path d="M5 54.5015C2.51472 54.5015 0.499999 56.5162 0.5 59.0015C0.5 61.4867 2.51472 63.5015 5 63.5015C7.48528 63.5015 9.5 61.4867 9.5 59.0015C9.5 56.5162 7.48528 54.5015 5 54.5015Z" stroke="#878787"/>
<path d="M5 54.0952L5 1.09521" stroke="#1B3741" stroke-width="2" stroke-linecap="round" stroke-dasharray="5 5"/>
</svg>
